Coordinates
version=1
nRows=9
nColumns=36
inDegrees=yes

Units are S.I. units (second, meters, Newtons, ...)
If the header above contains a line with 'inDegrees', this indicates whether rotational values are in degrees (yes) or radians (no).

endheader
time	pelvis_tilt	pelvis_list	pelvis_rotation	pelvis_tx	pelvis_ty	pelvis_tz	hip_flexion_r	hip_adduction_r	hip_rotation_r	knee_angle_r	knee_angle_r_beta	ankle_angle_r	subtalar_angle_r	mtp_angle_r	hip_flexion_l	hip_adduction_l	hip_rotation_l	knee_angle_l	knee_angle_l_beta	ankle_angle_l	subtalar_angle_l	mtp_angle_l	lumbar_extension	lumbar_bending	lumbar_rotation	arm_flex_r	arm_add_r	arm_rot_r	elbow_flex_r	pro_sup_r	arm_flex_l	arm_add_l	arm_rot_l	elbow_flex_l	pro_sup_l
      1.85000000	      1.30240436	      0.26026812	     -6.59272567	     -0.30972660	      1.18503422	     -0.09866181	     -2.91455585	     -0.13967776	      8.85356072	      4.70997060	      0.08220449	      6.57965350	    -24.15652931	     -7.49999986	     -3.10472801	      0.48607041	      5.49798977	      5.76183660	      0.10056302	     12.35265281	     -7.75477278	     -7.49999986	     -8.95950441	     -2.22021626	      0.10691514	      3.52259072	     -4.44613626	      8.54148810	     24.67892480	     80.04840406	     -3.50706744	     -6.32885304	      1.49680175	     31.55071283	     86.10513485
      1.86666670	      1.33590778	      0.25284506	     -6.57627595	     -0.30899403	      1.18726954	     -0.09894597	     -2.89362208	     -0.06964621	      8.87582759	      4.65391714	      0.08122618	      6.57525971	    -24.21506934	     -7.49999986	     -2.99684867	      0.46991342	      5.76523372	      5.83175166	      0.10178327	     12.42564899	     -7.83023273	     -7.49999986	     -9.25159105	     -2.25076138	      0.06792732	      3.60029078	     -4.35265694	      8.46512996	     24.85087987	     77.49720520	     -3.40693922	     -6.37540458	      1.60262720	     31.78135593	     83.11312503
      1.88333330	      1.35281421	      0.26395360	     -6.58912640	     -0.30372345	      1.18970103	     -0.10123079	     -2.90204441	     -0.07130521	      8.87880244	      4.65821104	      0.08130112	      6.57449564	    -24.21447213	     -7.49999986	     -2.98370660	      0.47680481	      5.77125665	      5.83507602	      0.10184129	     12.42489983	     -7.82581769	     -7.49999986	     -9.26338274	     -2.25610849	      0.07324125	      3.59917230	     -4.35210698	      8.46604876	     24.84818007	     77.49819611	     -3.41747553	     -6.36995738	      1.60471535	     31.77692349	     83.11427704
      1.90000000	      1.74076926	      0.30275344	     -6.47013733	     -0.30294192	      1.19223815	     -0.10182046	     -3.52721421	     -0.21513408	      8.67456451	      4.36566611	      0.07619525	      6.58470665	    -23.87325012	     -7.49999986	     -3.39282609	      0.57692816	      5.96051734	      5.89466474	      0.10288131	     12.54483763	     -7.52643771	     -7.49999986	     -9.83658980	     -2.27845731	      0.09994177	      3.55646250	     -4.41185755	      8.43974288	     24.75826076	     76.20280159	     -3.46118619	     -6.14826920	      1.74844237	     31.74398450	     81.48370812
      1.91666670	      1.80862015	      0.31492516	     -6.57363639	     -0.30396158	      1.18600416	     -0.10136884	     -3.64238970	     -0.26506131	      8.74602815	      4.31964728	      0.07539207	      6.71557677	    -23.86514522	     -7.49999987	     -3.40320394	      0.64807729	      5.89224028	      5.93652608	      0.10361193	     12.78727135	     -7.23217217	     -7.49999987	     -9.80631789	     -2.22366503	      0.16985736	      3.69960078	     -4.62001133	      9.39771563	     24.22110384	     78.34406234	     -3.36949727	     -6.19310825	      2.33607143	     31.39138189	     83.62731971
      1.93333330	      1.99863081	      0.33996815	     -6.64784096	     -0.30322033	      1.18355497	     -0.10167015	     -3.84926322	     -0.33942815	      8.75044334	      4.30246439	      0.07509217	      6.77795382	    -23.81556693	     -7.49999987	     -3.62334149	      0.73066601	      6.00168102	      5.83410009	      0.10182426	     12.93574458	     -6.97579905	     -7.49999987	    -10.01360395	     -2.21309583	      0.19562462	      3.66736832	     -4.59424395	      9.00509744	     24.29243015	     77.36180629	     -3.50762264	     -6.06840961	      2.06683994	     31.56068530	     82.53771958
      1.95000000	      2.00334737	      0.31857333	     -6.58672992	     -0.30424670	      1.17796770	     -0.10142505	     -3.86008033	     -0.30936727	      8.74053470	      4.35434279	      0.07599762	      6.91038686	    -23.87875647	     -7.49999987	     -3.61587255	      0.74512272	      6.22231800	      5.77361378	      0.10076857	     13.28572225	     -6.67670807	     -7.49999987	     -9.95793988	     -2.07935998	      0.16999989	      3.56308760	     -4.61667951	      8.56766704	     24.39860943	     77.63787386	     -3.59385764	     -6.05844756	      2.17026044	     31.57840281	     82.78990498
      1.96666670	      1.87926537	      0.31845503	     -6.60186363	     -0.30980782	      1.17779820	     -0.09885263	     -3.54844351	     -0.24339775	      8.79553025	      4.59664112	      0.08022652	      7.15745341	    -24.07357278	     -7.49999987	     -3.44741827	      0.71609735	      6.46022468	      5.62640410	      0.09819928	     13.47884958	     -6.55138430	     -7.49999987	     -9.91641071	     -2.01884401	      0.25750626	      3.67997328	     -4.62600656	      8.55796707	     24.52578481	     77.74919844	     -3.65477213	     -6.03343797	      2.14871520	     31.65908390	     82.90903535
      1.98333330	      1.81209772	      0.29469988	     -6.45875477	     -0.30410106	      1.17874727	     -0.10140882	     -3.45617259	     -0.18282386	      8.85218493	      4.72330769	      0.08243727	      7.31471103	    -24.17988120	     -7.49999987	     -3.31838728	      0.68238611	      6.76552874	      5.65886433	      0.09876581	     13.66625341	     -6.39221488	     -7.49999987	     -9.90203280	     -1.95147552	      0.22023204	      3.64490681	     -4.61275718	      8.55129080	     24.58243024	     77.79250625	     -3.67811621	     -6.05025079	      2.14632364	     31.69942103	     82.96013997
